#N canvas 770 48 380 1132 10;
#X obj 48 71 random 80;
#X obj 48 100 + 10;
#X obj 48 129 mtof;
#X obj 48 158 s \$0-out-1;
#X obj 48 48 metro 120;
#X obj 48 26 loadbang;
#X connect 0 0 1 0;
#X connect 1 0 2 0;
#X connect 2 0 3 0;
#X connect 4 0 0 0;
#X connect 5 0 4 0;
