#N canvas 962 78 316 1102 10;
#X obj 145 148 mtof;
#X obj 145 177 s \$0-out-1;
#X obj 145 70 random 10;
#X obj 145 98 * 4;
#X obj 145 121 + 20;
#X obj 145 21 loadbang;
#X obj 145 43 metro 200;
#X connect 0 0 1 0;
#X connect 2 0 3 0;
#X connect 3 0 4 0;
#X connect 4 0 0 0;
#X connect 5 0 6 0;
#X connect 6 0 2 0;
