#N canvas 2655 448 450 300 10;
#X obj 125 69 r \$0-in-2;
#X obj 53 38 r \$0-in-1;
#X obj 53 98 *~;
#X obj 54 128 dac~;
#X obj 53 68 phasor~;
#X connect 0 0 2 1;
#X connect 1 0 4 0;
#X connect 2 0 3 0;
#X connect 2 0 3 1;
#X connect 4 0 2 0;
