#N canvas 2655 448 482 346 10;
#X obj 25 28 adc~;
#X obj 25 102 dac~;
#X obj 76 28 r \$0-in-2;
#X obj 77 64 lop~;
#X obj 25 65 lop~;
#X connect 0 0 4 0;
#X connect 0 1 3 0;
#X connect 2 0 3 1;
#X connect 2 0 4 1;
#X connect 3 0 1 1;
#X connect 4 0 1 0;
